<mxfile host="Electron" agent="Mozilla/5.0 (Windows NT 10.0; Win64; x64) AppleWebKit/537.36 (KHTML, like Gecko) draw.io/24.7.17 Chrome/128.0.6613.36 Electron/32.0.1 Safari/537.36" version="24.7.17">
  <diagram name="Страница — 1" id="5MHNgdMcE-mXWKHavPoI">
    <mxGraphModel dx="1313" dy="786" grid="0" gridSize="10" guides="1" tooltips="1" connect="1" arrows="1" fold="1" page="0" pageScale="1" pageWidth="827" pageHeight="1169" math="0" shadow="0">
      <root>
        <mxCell id="0" />
        <mxCell id="1" parent="0" />
        <mxCell id="DXA92RJP-HY16_YkA-6b-1" value="Backend" style="verticalAlign=top;align=left;shape=cube;size=10;direction=south;fontStyle=0;html=1;boundedLbl=1;spacingLeft=5;whiteSpace=wrap;" parent="1" vertex="1">
          <mxGeometry x="365" y="171" width="865" height="507" as="geometry" />
        </mxCell>
        <mxCell id="DXA92RJP-HY16_YkA-6b-2" value="&lt;b&gt;PostgreSQL DBMS&lt;/b&gt;&lt;div&gt;&lt;hr&gt;&lt;br&gt;&lt;/div&gt;" style="verticalAlign=top;align=center;shape=cube;size=10;direction=south;html=1;boundedLbl=1;spacingLeft=5;whiteSpace=wrap;" parent="DXA92RJP-HY16_YkA-6b-1" vertex="1">
          <mxGeometry width="100" height="80" relative="1" as="geometry">
            <mxPoint x="260" y="383" as="offset" />
          </mxGeometry>
        </mxCell>
        <mxCell id="DXA92RJP-HY16_YkA-6b-5" value="&lt;b&gt;Gateway&lt;/b&gt;" style="verticalAlign=top;align=center;shape=cube;size=10;direction=south;html=1;boundedLbl=1;spacingLeft=5;whiteSpace=wrap;" parent="DXA92RJP-HY16_YkA-6b-1" vertex="1">
          <mxGeometry x="32.9996475770925" y="186.0029083665339" width="215.85624082232013" height="96.29970119521911" as="geometry" />
        </mxCell>
        <mxCell id="DXA92RJP-HY16_YkA-6b-6" value="&lt;b&gt;Auth&lt;/b&gt;" style="verticalAlign=top;align=center;shape=cube;size=10;direction=south;html=1;boundedLbl=1;spacingLeft=5;whiteSpace=wrap;" parent="DXA92RJP-HY16_YkA-6b-1" vertex="1">
          <mxGeometry x="303.575624082232" y="173.71314741035857" width="176.55653450807637" height="103.45021912350599" as="geometry" />
        </mxCell>
        <mxCell id="DXA92RJP-HY16_YkA-6b-16" value="" style="endArrow=none;html=1;rounded=0;entryX=1.01;entryY=0.728;entryDx=0;entryDy=0;entryPerimeter=0;exitX=0.013;exitY=0.296;exitDx=0;exitDy=0;exitPerimeter=0;edgeStyle=orthogonalEdgeStyle;" parent="DXA92RJP-HY16_YkA-6b-1" source="DXA92RJP-HY16_YkA-6b-2" target="DXA92RJP-HY16_YkA-6b-6" edge="1">
          <mxGeometry width="50" height="50" relative="1" as="geometry">
            <mxPoint x="-88.46590909090911" y="145.2987804878049" as="sourcePoint" />
            <mxPoint x="75.35984848484848" y="68.01219512195121" as="targetPoint" />
            <Array as="points">
              <mxPoint x="315" y="384" />
              <mxPoint x="315" y="326" />
              <mxPoint x="352" y="326" />
            </Array>
          </mxGeometry>
        </mxCell>
        <mxCell id="DXA92RJP-HY16_YkA-6b-19" value="&lt;b&gt;Core&lt;/b&gt;" style="verticalAlign=top;align=center;shape=cube;size=10;direction=south;html=1;boundedLbl=1;spacingLeft=5;whiteSpace=wrap;" parent="DXA92RJP-HY16_YkA-6b-1" vertex="1">
          <mxGeometry x="508" y="175" width="161" height="103" as="geometry" />
        </mxCell>
        <mxCell id="DXA92RJP-HY16_YkA-6b-20" value="" style="endArrow=none;html=1;rounded=0;entryX=0;entryY=0;entryDx=103;entryDy=85.5;entryPerimeter=0;exitX=0.01;exitY=0.26;exitDx=0;exitDy=0;exitPerimeter=0;edgeStyle=orthogonalEdgeStyle;" parent="DXA92RJP-HY16_YkA-6b-1" source="DXA92RJP-HY16_YkA-6b-2" target="DXA92RJP-HY16_YkA-6b-19" edge="1">
          <mxGeometry width="50" height="50" relative="1" as="geometry">
            <mxPoint x="367.0798319327731" y="124.29677419354836" as="sourcePoint" />
            <mxPoint x="457.9411764705883" y="42.52258064516128" as="targetPoint" />
            <Array as="points">
              <mxPoint x="315" y="384" />
              <mxPoint x="315" y="326" />
              <mxPoint x="592" y="326" />
              <mxPoint x="592" y="278" />
            </Array>
          </mxGeometry>
        </mxCell>
        <mxCell id="9zpsdFi_jnxNL9avtkRA-4" value="&lt;b&gt;Notifications&lt;/b&gt;" style="verticalAlign=top;align=center;shape=cube;size=10;direction=south;html=1;boundedLbl=1;spacingLeft=5;whiteSpace=wrap;" parent="DXA92RJP-HY16_YkA-6b-1" vertex="1">
          <mxGeometry x="702.9986196769457" y="179.31982071713145" width="149.8825256975037" height="92.23966135458167" as="geometry" />
        </mxCell>
        <mxCell id="9zpsdFi_jnxNL9avtkRA-5" value="" style="endArrow=none;html=1;rounded=0;exitX=0;exitY=0;exitDx=0;exitDy=45;exitPerimeter=0;entryX=0;entryY=0;entryDx=92.23966135458167;entryDy=79.94126284875185;entryPerimeter=0;edgeStyle=orthogonalEdgeStyle;" parent="DXA92RJP-HY16_YkA-6b-1" source="DXA92RJP-HY16_YkA-6b-2" target="9zpsdFi_jnxNL9avtkRA-4" edge="1">
          <mxGeometry width="50" height="50" relative="1" as="geometry">
            <mxPoint x="352.9999999999999" y="436.13" as="sourcePoint" />
            <mxPoint x="776.2811453744497" y="320.99982071713123" as="targetPoint" />
          </mxGeometry>
        </mxCell>
        <mxCell id="SUniMxHS1pEBcW63iY3R-1" value="" style="shape=note2;boundedLbl=1;whiteSpace=wrap;html=1;size=25;verticalAlign=top;align=center;" parent="DXA92RJP-HY16_YkA-6b-1" vertex="1">
          <mxGeometry x="48.00477239353893" y="218.5512749003984" width="167.66519823788548" height="48.47808764940239" as="geometry" />
        </mxCell>
        <mxCell id="SUniMxHS1pEBcW63iY3R-14" value="" style="rounded=0;orthogonalLoop=1;jettySize=auto;html=1;exitX=0;exitY=0;exitDx=43.14985059760956;exitDy=0;exitPerimeter=0;" parent="DXA92RJP-HY16_YkA-6b-1" source="DXA92RJP-HY16_YkA-6b-5" target="DXA92RJP-HY16_YkA-6b-6" edge="1">
          <mxGeometry relative="1" as="geometry" />
        </mxCell>
        <mxCell id="SUniMxHS1pEBcW63iY3R-2" value="&lt;font style=&quot;font-size: 8px;&quot;&gt;&amp;lt;&amp;lt;artifact&amp;gt;&amp;gt;&lt;/font&gt;&lt;div&gt;&lt;font style=&quot;font-size: 8px;&quot;&gt;gateway_service.jar&lt;/font&gt;&lt;/div&gt;" style="text;html=1;align=center;verticalAlign=middle;whiteSpace=wrap;rounded=0;" parent="DXA92RJP-HY16_YkA-6b-1" vertex="1">
          <mxGeometry x="60.00477239353893" y="225.62099601593627" width="135.91042584434655" height="34.33864541832669" as="geometry" />
        </mxCell>
        <mxCell id="SUniMxHS1pEBcW63iY3R-5" value="" style="shape=note2;boundedLbl=1;whiteSpace=wrap;html=1;size=25;verticalAlign=top;align=center;" parent="DXA92RJP-HY16_YkA-6b-1" vertex="1">
          <mxGeometry x="324" y="221.18" width="130.42" height="45.85" as="geometry" />
        </mxCell>
        <mxCell id="SUniMxHS1pEBcW63iY3R-6" value="&lt;font style=&quot;font-size: 8px;&quot;&gt;&amp;lt;&amp;lt;artifact&amp;gt;&amp;gt;&lt;/font&gt;&lt;div&gt;&lt;font style=&quot;font-size: 8px;&quot;&gt;auth_service.jar&lt;/font&gt;&lt;/div&gt;" style="text;html=1;align=center;verticalAlign=middle;whiteSpace=wrap;rounded=0;" parent="DXA92RJP-HY16_YkA-6b-1" vertex="1">
          <mxGeometry x="324" y="227.11" width="107" height="34" as="geometry" />
        </mxCell>
        <mxCell id="SUniMxHS1pEBcW63iY3R-7" value="" style="shape=note2;boundedLbl=1;whiteSpace=wrap;html=1;size=25;verticalAlign=top;align=center;" parent="DXA92RJP-HY16_YkA-6b-1" vertex="1">
          <mxGeometry x="518" y="222.5" width="130.42" height="45.85" as="geometry" />
        </mxCell>
        <mxCell id="SUniMxHS1pEBcW63iY3R-8" value="&lt;font style=&quot;font-size: 8px;&quot;&gt;&amp;lt;&amp;lt;artifact&amp;gt;&amp;gt;&lt;/font&gt;&lt;div&gt;&lt;font style=&quot;font-size: 8px;&quot;&gt;core_service.jar&lt;/font&gt;&lt;/div&gt;" style="text;html=1;align=center;verticalAlign=middle;whiteSpace=wrap;rounded=0;" parent="DXA92RJP-HY16_YkA-6b-1" vertex="1">
          <mxGeometry x="514" y="228.58999999999997" width="107" height="34" as="geometry" />
        </mxCell>
        <mxCell id="SUniMxHS1pEBcW63iY3R-17" value="" style="endArrow=classic;html=1;rounded=0;entryX=0.453;entryY=0.979;entryDx=0;entryDy=0;entryPerimeter=0;exitX=0;exitY=0;exitDx=46.725109561752994;exitDy=0;exitPerimeter=0;startArrow=classic;startFill=1;" parent="DXA92RJP-HY16_YkA-6b-1" source="DXA92RJP-HY16_YkA-6b-6" target="DXA92RJP-HY16_YkA-6b-19" edge="1">
          <mxGeometry width="50" height="50" relative="1" as="geometry">
            <mxPoint x="375" y="249" as="sourcePoint" />
            <mxPoint x="425" y="199" as="targetPoint" />
          </mxGeometry>
        </mxCell>
        <mxCell id="SUniMxHS1pEBcW63iY3R-18" value="" style="endArrow=classic;html=1;rounded=0;entryX=0;entryY=0;entryDx=0;entryDy=69.94126284875185;entryPerimeter=0;exitX=0;exitY=0;exitDx=0;exitDy=83.27826725403818;exitPerimeter=0;edgeStyle=orthogonalEdgeStyle;startArrow=classic;startFill=1;" parent="DXA92RJP-HY16_YkA-6b-1" source="DXA92RJP-HY16_YkA-6b-6" target="9zpsdFi_jnxNL9avtkRA-4" edge="1">
          <mxGeometry width="50" height="50" relative="1" as="geometry">
            <mxPoint x="307" y="270" as="sourcePoint" />
            <mxPoint x="357" y="220" as="targetPoint" />
          </mxGeometry>
        </mxCell>
        <mxCell id="SUniMxHS1pEBcW63iY3R-19" value="" style="endArrow=classic;html=1;rounded=0;exitX=0;exitY=0;exitDx=46.5;exitDy=0;exitPerimeter=0;startArrow=classic;startFill=1;entryX=0.46;entryY=0.993;entryDx=0;entryDy=0;entryPerimeter=0;" parent="DXA92RJP-HY16_YkA-6b-1" source="DXA92RJP-HY16_YkA-6b-19" target="9zpsdFi_jnxNL9avtkRA-4" edge="1">
          <mxGeometry width="50" height="50" relative="1" as="geometry">
            <mxPoint x="412" y="253" as="sourcePoint" />
            <mxPoint x="686" y="224" as="targetPoint" />
          </mxGeometry>
        </mxCell>
        <mxCell id="SUniMxHS1pEBcW63iY3R-9" value="" style="shape=note2;boundedLbl=1;whiteSpace=wrap;html=1;size=25;verticalAlign=top;align=center;" parent="DXA92RJP-HY16_YkA-6b-1" vertex="1">
          <mxGeometry x="707" y="216.74" width="130.42" height="45.85" as="geometry" />
        </mxCell>
        <mxCell id="SUniMxHS1pEBcW63iY3R-20" value="" style="endArrow=classic;html=1;rounded=0;exitX=0.471;exitY=1;exitDx=0;exitDy=0;exitPerimeter=0;entryX=0;entryY=0;entryDx=53.14985059760956;entryDy=215.85624082232013;entryPerimeter=0;" parent="DXA92RJP-HY16_YkA-6b-1" source="DXA92RJP-HY16_YkA-6b-1" target="DXA92RJP-HY16_YkA-6b-5" edge="1">
          <mxGeometry width="50" height="50" relative="1" as="geometry">
            <mxPoint x="284" y="303" as="sourcePoint" />
            <mxPoint x="334" y="253" as="targetPoint" />
          </mxGeometry>
        </mxCell>
        <mxCell id="SUniMxHS1pEBcW63iY3R-10" value="&lt;font style=&quot;font-size: 8px;&quot;&gt;&amp;lt;&amp;lt;artifact&amp;gt;&amp;gt;&lt;/font&gt;&lt;div&gt;&lt;font style=&quot;font-size: 8px;&quot;&gt;notifications_service.jar&lt;/font&gt;&lt;/div&gt;" style="text;html=1;align=center;verticalAlign=middle;whiteSpace=wrap;rounded=0;" parent="DXA92RJP-HY16_YkA-6b-1" vertex="1">
          <mxGeometry x="707" y="222.66000000000003" width="107" height="34" as="geometry" />
        </mxCell>
        <mxCell id="DXA92RJP-HY16_YkA-6b-4" value="&lt;b&gt;Mobile Client&lt;/b&gt;&lt;div&gt;{OS= IOS}&lt;/div&gt;&lt;div&gt;&lt;hr&gt;&lt;div&gt;&lt;br&gt;&lt;/div&gt;&lt;/div&gt;" style="verticalAlign=top;align=center;shape=cube;size=10;direction=south;html=1;boundedLbl=1;spacingLeft=5;whiteSpace=wrap;" parent="1" vertex="1">
          <mxGeometry x="116" y="351" width="120" height="92" as="geometry" />
        </mxCell>
        <mxCell id="DXA92RJP-HY16_YkA-6b-12" value="" style="endArrow=none;html=1;rounded=0;entryX=0.599;entryY=0.005;entryDx=0;entryDy=0;entryPerimeter=0;exitX=0.469;exitY=1.004;exitDx=0;exitDy=0;exitPerimeter=0;" parent="1" source="DXA92RJP-HY16_YkA-6b-1" target="DXA92RJP-HY16_YkA-6b-4" edge="1">
          <mxGeometry width="50" height="50" relative="1" as="geometry">
            <mxPoint x="140.36599999999976" y="466.3919999999998" as="sourcePoint" />
            <mxPoint x="437" y="401" as="targetPoint" />
          </mxGeometry>
        </mxCell>
        <mxCell id="SUniMxHS1pEBcW63iY3R-11" value="https" style="text;html=1;align=center;verticalAlign=middle;whiteSpace=wrap;rounded=0;" parent="1" vertex="1">
          <mxGeometry x="256" y="377" width="60" height="30" as="geometry" />
        </mxCell>
      </root>
    </mxGraphModel>
  </diagram>
</mxfile>
